# xmcd
#
# Track frame offsets:
# 150
# 56250
# 71236
# 102106
# 138103
# 157016
# 186182
# 213672
# 244280
# 279150
# 307598
#
# Disc length: 4437 seconds
#
# Revision: 0
# Processed by: cddbd v1.5.1PL2 Copyright (c) Steve Scherf et al.
# Submitted via: Audion 3.0.2 (http://www.panic.com/audion/)
#
DISCID=9611530b
DTITLE=Chasis - Chasis Night X-perience
DYEAR=1900
DGENRE=
TTITLE0=Session mix Chasis Night X perience mezclado por united spanish deejays
TTITLE1=Rednight "Magic" Makina X perience
TTITLE2=Dj Snacky " Can u feel it"
TTITLE3=Dj Flash " Let the music started"
TTITLE4=Dj Mk "Get up everybody"
TTITLE5=East Company " Soviet Rapsody"
TTITLE6=United spanish deejays " the pitch bender"
TTITLE7=Makina soldier " speak to me"
TTITLE8=Dj Dany " Gimme the power"
TTITLE9=Mortal Dj " Spirit of darkness"
TTITLE10=Garry Davis " Isaac song"
EXTD=
EXTT0=
EXTT1=
EXTT2=
EXTT3=
EXTT4=
EXTT5=
EXTT6=
EXTT7=
EXTT8=
EXTT9=
EXTT10=
PLAYORDER=
